# xmcd CD database file
#
# Track frame offsets:
#	150
#	23450
#	37545
#	66360
#	91732
#	109647
#	139305
#	163940
#	188880
#	205550
#	231555
#	257455
#	271745
#	285752
#	306560
#
# Disc length: 4380 seconds
#
# Revision: 3
# Processed by: cddbd v1.5.1PL0 Copyright (c) Steve Scherf et al.
# Submitted via: CDex 1.51
#
DISCID=c2111a0f
DTITLE=Johnny Adams - There is Always One More Time
DYEAR=2000
DGENRE=Soul
TTITLE0=I feel Like Breaking Up Somebody's Home
TTITLE1=Happy Hard Times
TTITLE2=I'll Only Miss Her When I Think of Her
TTITLE3=I Don't Know
TTITLE4=Lovers Will
TTITLE5=One Foot in the Blues
TTITLE6=Even Now
TTITLE7=Body and Fender Man
TTITLE8=There is Always One More Time
TTITLE9=Walking on a Tightrope
TTITLE10=I Don't Want to Do Wrong
TTITLE11=A Lot of Living to Do
TTITLE12=Wish I'd Neve Loved You at All
TTITLE13=But Not For Me
TTITLE14=Never Alone
EXTD=YEAR: 2000
EXTT0=
EXTT1=
EXTT2=
EXTT3=
EXTT4=
EXTT5=
EXTT6=
EXTT7=
EXTT8=
EXTT9=
EXTT10=
EXTT11=
EXTT12=
EXTT13=
EXTT14=
PLAYORDER=
